# xmcd CD database file
#
# Track frame offsets:
#	150
#	15444
#	35335
#	53551
#	76274
#	95877
#	114430
#	130540
#	151217
#	165058
#
# Disc length: 2471 seconds
#
# Revision: 0
# Processed by: cddbd v1.5.2PL0 Copyright (c) Steve Scherf et al.
# Submitted via: CDex 1.51
#
DISCID=6109a50a
DTITLE=Danielle Miraglia - Live At Toad
DYEAR=2010
DGENRE=Blues
TTITLE0=See The Light
TTITLE1=Nobody's Business
TTITLE2=Left Hand Turn
TTITLE3=Nothing Romantic
TTITLE4=Famous For Nothin'
TTITLE5=Loud Talker
TTITLE6=Cry
TTITLE7=Meet Me In The Morning
TTITLE8=Stealin'
TTITLE9=Pick Up The Gun
EXTD=YEAR: 2010
EXTT0=
EXTT1=
EXTT2=
EXTT3=
EXTT4=
EXTT5=
EXTT6=
EXTT7=
EXTT8=
EXTT9=
PLAYORDER=
